<?xml version="1.0" encoding="UTF-8"?>
<svg xmlns="http://www.w3.org/2000/svg" width="1800" height="1080" viewBox="0 0 1800 1080" role="img" aria-label="Accuracy-Locked Box, Source, And Lighting Assets">
  <defs>
    <filter id="shadow" x="-20%" y="-20%" width="140%" height="150%">
      <feDropShadow dx="0" dy="16" stdDeviation="16" flood-color="#26313d" flood-opacity="0.18"/>
    </filter>
    <linearGradient id="deviceFace" x1="0" x2="0" y1="0" y2="1">
      <stop offset="0%" stop-color="#ffffff"/>
      <stop offset="100%" stop-color="#f2f4f6"/>
    </linearGradient>
    <linearGradient id="metal" x1="0" x2="1" y1="0" y2="1">
      <stop offset="0%" stop-color="#f5f7f8"/>
      <stop offset="45%" stop-color="#cfd6dc"/>
      <stop offset="100%" stop-color="#9fa9b3"/>
    </linearGradient>
    <linearGradient id="boxMetal" x1="0" x2="1" y1="0" y2="1">
      <stop offset="0%" stop-color="#f2f6f8"/>
      <stop offset="50%" stop-color="#b7c0c7"/>
      <stop offset="100%" stop-color="#7f8b95"/>
    </linearGradient>
  </defs>
  <rect width="100%" height="100%" fill="#f4f6f8"/>
  <text x="900" y="58" text-anchor="middle" font-family="Inter, Arial, Helvetica, sans-serif" font-size="34" font-weight="800" fill="#17202a">Accuracy-Locked Box, Source, And Lighting Assets</text>
  <text x="900" y="92" text-anchor="middle" font-family="Inter, Arial, Helvetica, sans-serif" font-size="18" font-weight="650" fill="#5d6875">Fresh clean materials with visible simulator connection points.</text>
  <g filter="url(#shadow)"><rect x="130" y="200" width="340" height="300" rx="12" fill="url(#boxMetal)" stroke="#6f7b85" stroke-width="4"/><rect x="160" y="230" width="280" height="240" rx="8" fill="#dbe1e5" stroke="#6f7b85" stroke-width="3"/><circle cx="205" cy="288" r="27.5" fill="none" stroke="#8b969f" stroke-width="4"/><circle cx="300" cy="288" r="27.5" fill="none" stroke="#8b969f" stroke-width="4"/><circle cx="395" cy="288" r="27.5" fill="none" stroke="#8b969f" stroke-width="4"/><circle cx="234" cy="402" r="32" fill="none" stroke="#8b969f" stroke-width="4"/><circle cx="366" cy="402" r="32" fill="none" stroke="#8b969f" stroke-width="4"/><circle cx="412" cy="420" r="16" fill="#1f9a5b" stroke="#3e4650" stroke-width="2"/><line x1="403.2" y1="420" x2="420.8" y2="420" stroke="#fff" stroke-width="2.5" stroke-linecap="round" opacity="0.85"/><line x1="412" y1="411.2" x2="412" y2="428.8" stroke="#fff" stroke-width="2.5" stroke-linecap="round" opacity="0.85"/><text x="412" y="463" text-anchor="middle" font-family="Inter, Arial, Helvetica, sans-serif" font-size="15" font-weight="700" fill="#5d6875">ground</text></g><g filter="url(#shadow)"><rect x="750" y="200" width="300" height="300" rx="18" fill="#f8fafc" stroke="#aeb8c2" stroke-width="4"/><rect x="824" y="242" width="152" height="150" rx="14" fill="#20242a"/><rect x="852" y="262" width="38" height="105" rx="8" fill="#343a40"/><rect x="910" y="262" width="38" height="105" rx="8" fill="#343a40"/><circle cx="818" cy="432" r="17" fill="#1c1d20" stroke="#3e4650" stroke-width="2"/><line x1="808.65" y1="432" x2="827.35" y2="432" stroke="#fff" stroke-width="2.5" stroke-linecap="round" opacity="0.85"/><line x1="818" y1="422.65" x2="818" y2="441.35" stroke="#fff" stroke-width="2.5" stroke-linecap="round" opacity="0.85"/><circle cx="900" cy="432" r="17" fill="#c8d0d8" stroke="#3e4650" stroke-width="2"/><line x1="890.65" y1="432" x2="909.35" y2="432" stroke="#fff" stroke-width="2.5" stroke-linecap="round" opacity="0.85"/><line x1="900" y1="422.65" x2="900" y2="441.35" stroke="#fff" stroke-width="2.5" stroke-linecap="round" opacity="0.85"/><circle cx="982" cy="432" r="17" fill="#1f9a5b" stroke="#3e4650" stroke-width="2"/><line x1="972.65" y1="432" x2="991.35" y2="432" stroke="#fff" stroke-width="2.5" stroke-linecap="round" opacity="0.85"/><line x1="982" y1="422.65" x2="982" y2="441.35" stroke="#fff" stroke-width="2.5" stroke-linecap="round" opacity="0.85"/><text x="818" y="470" text-anchor="middle" font-family="Inter, Arial, Helvetica, sans-serif" font-size="15" font-weight="700" fill="#5d6875">hot</text><text x="900" y="470" text-anchor="middle" font-family="Inter, Arial, Helvetica, sans-serif" font-size="15" font-weight="700" fill="#5d6875">neutral</text><text x="982" y="470" text-anchor="middle" font-family="Inter, Arial, Helvetica, sans-serif" font-size="15" font-weight="700" fill="#5d6875">ground</text></g><g filter="url(#shadow)"><rect x="1358" y="205" width="184" height="290" rx="16" fill="url(#deviceFace)" stroke="#ccd3da" stroke-width="3"/><rect x="1415" y="236" width="14" height="52" rx="4" fill="#111"/><rect x="1471" y="236" width="14" height="52" rx="4" fill="#111"/><path d="M 1424 320 Q 1450 297 1476 320 L 1472 342 L 1428 342 Z" fill="#111"/><rect x="1402" y="338" width="96" height="32" rx="7" fill="#fff" stroke="#949ca6" stroke-width="2"/><rect x="1402" y="383" width="96" height="32" rx="7" fill="#fff" stroke="#949ca6" stroke-width="2"/><rect x="1415" y="424" width="14" height="52" rx="4" fill="#111"/><rect x="1471" y="424" width="14" height="52" rx="4" fill="#111"/><path d="M 1424 508 Q 1450 485 1476 508 L 1472 530 L 1428 530 Z" fill="#111"/><path d="M 1542 250 C 1655 172, 1710 280, 1688 360" fill="none" stroke="#fafafa" stroke-width="30" stroke-linecap="round"/><rect x="1660" y="340" width="88" height="100" rx="22" fill="#fff" stroke="#ccd3da" stroke-width="3"/><line x1="1694" y1="440" x2="1682" y2="495" stroke="#c58a21" stroke-width="10" stroke-linecap="round"/><line x1="1718" y1="440" x2="1732" y2="495" stroke="#c58a21" stroke-width="10" stroke-linecap="round"/></g><g filter="url(#shadow)"><circle cx="650" cy="760" r="110" fill="url(#deviceFace)" stroke="#ccd3da" stroke-width="4"/><circle cx="650" cy="750" r="68" fill="#fff" stroke="#d2d8df" stroke-width="4"/><circle cx="650" cy="750" r="46" fill="#d19a28" stroke="#9d6d12" stroke-width="4"/><path d="M 610 748 C 632 728, 668 772, 690 748" fill="none" stroke="#fff3bb" stroke-width="5"/><circle cx="568" cy="842" r="16" fill="#c58a21" stroke="#3e4650" stroke-width="2"/><line x1="559.2" y1="842" x2="576.8" y2="842" stroke="#fff" stroke-width="2.5" stroke-linecap="round" opacity="0.85"/><line x1="568" y1="833.2" x2="568" y2="850.8" stroke="#fff" stroke-width="2.5" stroke-linecap="round" opacity="0.85"/><circle cx="732" cy="842" r="16" fill="#c8d0d8" stroke="#3e4650" stroke-width="2"/><line x1="723.2" y1="842" x2="740.8" y2="842" stroke="#fff" stroke-width="2.5" stroke-linecap="round" opacity="0.85"/><line x1="732" y1="833.2" x2="732" y2="850.8" stroke="#fff" stroke-width="2.5" stroke-linecap="round" opacity="0.85"/><text x="568" y="885" text-anchor="middle" font-family="Inter, Arial, Helvetica, sans-serif" font-size="15" font-weight="700" fill="#5d6875">hot</text><text x="732" y="885" text-anchor="middle" font-family="Inter, Arial, Helvetica, sans-serif" font-size="15" font-weight="700" fill="#5d6875">neutral</text></g><g filter="url(#shadow)"><path d="M 1092 724 C 1082 642, 1218 642, 1208 724 C 1200 780, 1100 780, 1092 724 Z" fill="#fbfdff" stroke="#b9c3cc" stroke-width="4" opacity="0.92"/><rect x="1108" y="768" width="84" height="62" rx="9" fill="#d19a28" stroke="#9d6d12" stroke-width="4"/><line x1="1124" y1="830" x2="1124" y2="876" stroke="#c58a21" stroke-width="9" stroke-linecap="round"/><line x1="1176" y1="830" x2="1176" y2="876" stroke="#c58a21" stroke-width="9" stroke-linecap="round"/><path d="M 1122 750 C 1142 716, 1158 716, 1178 750" fill="none" stroke="#6f7782" stroke-width="3"/></g><rect x="80" y="575" width="440" height="86" rx="16" fill="#fff" stroke="#d7dde3"/><text x="300" y="611" text-anchor="middle" font-family="Inter, Arial, Helvetica, sans-serif" font-size="24" font-weight="800" fill="#17202a">4x4 Metal Box</text><text x="300" y="639" text-anchor="middle" font-family="Inter, Arial, Helvetica, sans-serif" font-size="16" font-weight="650" fill="#5d6875">one green ground screw</text><rect x="680" y="575" width="440" height="86" rx="16" fill="#fff" stroke="#d7dde3"/><text x="900" y="611" text-anchor="middle" font-family="Inter, Arial, Helvetica, sans-serif" font-size="24" font-weight="800" fill="#17202a">Breaker / Source Module</text><text x="900" y="639" text-anchor="middle" font-family="Inter, Arial, Helvetica, sans-serif" font-size="16" font-weight="650" fill="#5d6875">hot + neutral + ground training terminals</text><rect x="1230" y="575" width="440" height="86" rx="16" fill="#fff" stroke="#d7dde3"/><text x="1450" y="611" text-anchor="middle" font-family="Inter, Arial, Helvetica, sans-serif" font-size="24" font-weight="800" fill="#17202a">Protected Outlet Source</text><text x="1450" y="639" text-anchor="middle" font-family="Inter, Arial, Helvetica, sans-serif" font-size="16" font-weight="650" fill="#5d6875">clean protected outlet and cord source</text><rect x="430" y="940" width="440" height="86" rx="16" fill="#fff" stroke="#d7dde3"/><text x="650" y="976" text-anchor="middle" font-family="Inter, Arial, Helvetica, sans-serif" font-size="24" font-weight="800" fill="#17202a">Keyless Lampholder</text><text x="650" y="1004" text-anchor="middle" font-family="Inter, Arial, Helvetica, sans-serif" font-size="16" font-weight="650" fill="#5d6875">brass hot + silver neutral only</text><rect x="930" y="940" width="440" height="86" rx="16" fill="#fff" stroke="#d7dde3"/><text x="1150" y="976" text-anchor="middle" font-family="Inter, Arial, Helvetica, sans-serif" font-size="24" font-weight="800" fill="#17202a">Socket Lightbulb</text><text x="1150" y="1004" text-anchor="middle" font-family="Inter, Arial, Helvetica, sans-serif" font-size="16" font-weight="650" fill="#5d6875">small plug-in/receptacle test light</text>
</svg>