<?xml version="1.0" encoding="UTF-8"?>
<svg xmlns="http://www.w3.org/2000/svg" width="1800" height="1060" viewBox="0 0 1800 1060" role="img" aria-label="Accuracy-Locked Outlet Assets">
  <defs>
    <filter id="shadow" x="-20%" y="-20%" width="140%" height="150%">
      <feDropShadow dx="0" dy="16" stdDeviation="16" flood-color="#26313d" flood-opacity="0.18"/>
    </filter>
    <linearGradient id="deviceFace" x1="0" x2="0" y1="0" y2="1">
      <stop offset="0%" stop-color="#ffffff"/>
      <stop offset="100%" stop-color="#f2f4f6"/>
    </linearGradient>
    <linearGradient id="metal" x1="0" x2="1" y1="0" y2="1">
      <stop offset="0%" stop-color="#f5f7f8"/>
      <stop offset="45%" stop-color="#cfd6dc"/>
      <stop offset="100%" stop-color="#9fa9b3"/>
    </linearGradient>
    <linearGradient id="boxMetal" x1="0" x2="1" y1="0" y2="1">
      <stop offset="0%" stop-color="#f2f6f8"/>
      <stop offset="50%" stop-color="#b7c0c7"/>
      <stop offset="100%" stop-color="#7f8b95"/>
    </linearGradient>
  </defs>
  <rect width="100%" height="100%" fill="#f4f6f8"/>
  <text x="900" y="58" text-anchor="middle" font-family="Inter, Arial, Helvetica, sans-serif" font-size="34" font-weight="800" fill="#17202a">Accuracy-Locked Outlet Assets</text>
  <text x="900" y="92" text-anchor="middle" font-family="Inter, Arial, Helvetica, sans-serif" font-size="18" font-weight="650" fill="#5d6875">Clean brand-new finish. GFCI front labels and LINE/LOAD side-back markings are explicit.</text>
  <g filter="url(#shadow)"><rect x="241" y="154" width="88" height="96" rx="10" fill="url(#metal)" stroke="#9fa9b3"/><rect x="241" y="570" width="88" height="96" rx="10" fill="url(#metal)" stroke="#9fa9b3"/><circle cx="223" cy="192" r="22" fill="none" stroke="#9fa9b3" stroke-width="7"/><circle cx="347" cy="192" r="22" fill="none" stroke="#9fa9b3" stroke-width="7"/><circle cx="223" cy="628" r="22" fill="none" stroke="#9fa9b3" stroke-width="7"/><circle cx="347" cy="628" r="22" fill="none" stroke="#9fa9b3" stroke-width="7"/><circle cx="285" cy="200" r="11" fill="#c8d0d8" stroke="#9fa9b3" stroke-width="2"/><line x1="278.95" y1="200" x2="291.05" y2="200" stroke="#fff" stroke-width="2.5" stroke-linecap="round" opacity="0.85"/><line x1="285" y1="193.95" x2="285" y2="206.05" stroke="#fff" stroke-width="2.5" stroke-linecap="round" opacity="0.85"/><circle cx="285" cy="620" r="11" fill="#c8d0d8" stroke="#9fa9b3" stroke-width="2"/><line x1="278.95" y1="620" x2="291.05" y2="620" stroke="#fff" stroke-width="2.5" stroke-linecap="round" opacity="0.85"/><line x1="285" y1="613.95" x2="285" y2="626.05" stroke="#fff" stroke-width="2.5" stroke-linecap="round" opacity="0.85"/><rect x="200" y="230" width="170" height="360" rx="24" fill="url(#deviceFace)" stroke="#d7dde4" stroke-width="3"/><rect x="217" y="254" width="136" height="138" rx="28" fill="#fff" stroke="#e3e6ea"/><rect x="250" y="268" width="14" height="52" rx="4" fill="#111"/><rect x="306" y="268" width="14" height="52" rx="4" fill="#111"/><path d="M 259 352 Q 285 329 311 352 L 307 374 L 263 374 Z" fill="#111"/><circle cx="285" cy="410" r="10" fill="#111"/><rect x="217" y="428" width="136" height="138" rx="28" fill="#fff" stroke="#e3e6ea"/><rect x="250" y="442" width="14" height="52" rx="4" fill="#111"/><rect x="306" y="442" width="14" height="52" rx="4" fill="#111"/><path d="M 259 526 Q 285 503 311 526 L 307 548 L 263 548 Z" fill="#111"/><circle cx="178" cy="318" r="13" fill="#c8d0d8" stroke="#3e4650" stroke-width="2"/><line x1="170.85" y1="318" x2="185.15" y2="318" stroke="#fff" stroke-width="2.5" stroke-linecap="round" opacity="0.85"/><line x1="178" y1="310.85" x2="178" y2="325.15" stroke="#fff" stroke-width="2.5" stroke-linecap="round" opacity="0.85"/><circle cx="178" cy="490" r="13" fill="#c8d0d8" stroke="#3e4650" stroke-width="2"/><line x1="170.85" y1="490" x2="185.15" y2="490" stroke="#fff" stroke-width="2.5" stroke-linecap="round" opacity="0.85"/><line x1="178" y1="482.85" x2="178" y2="497.15" stroke="#fff" stroke-width="2.5" stroke-linecap="round" opacity="0.85"/><circle cx="392" cy="318" r="13" fill="#c58a21" stroke="#3e4650" stroke-width="2"/><line x1="384.85" y1="318" x2="399.15" y2="318" stroke="#fff" stroke-width="2.5" stroke-linecap="round" opacity="0.85"/><line x1="392" y1="310.85" x2="392" y2="325.15" stroke="#fff" stroke-width="2.5" stroke-linecap="round" opacity="0.85"/><circle cx="392" cy="490" r="13" fill="#c58a21" stroke="#3e4650" stroke-width="2"/><line x1="384.85" y1="490" x2="399.15" y2="490" stroke="#fff" stroke-width="2.5" stroke-linecap="round" opacity="0.85"/><line x1="392" y1="482.85" x2="392" y2="497.15" stroke="#fff" stroke-width="2.5" stroke-linecap="round" opacity="0.85"/><circle cx="178" cy="562" r="13" fill="#1f9a5b" stroke="#3e4650" stroke-width="2"/><line x1="170.85" y1="562" x2="185.15" y2="562" stroke="#fff" stroke-width="2.5" stroke-linecap="round" opacity="0.85"/><line x1="178" y1="554.85" x2="178" y2="569.15" stroke="#fff" stroke-width="2.5" stroke-linecap="round" opacity="0.85"/><rect x="192" y="335" width="7" height="135" rx="3" fill="#cfd6dc"/><rect x="372" y="335" width="7" height="135" rx="3" fill="#c58a21"/><text x="152" y="285" text-anchor="middle" font-family="Inter, Arial, Helvetica, sans-serif" font-size="13" font-weight="700" fill="#5d6875">silver</text><text x="422" y="285" text-anchor="middle" font-family="Inter, Arial, Helvetica, sans-serif" font-size="13" font-weight="700" fill="#5d6875">brass</text></g><g filter="url(#shadow)"><rect x="726" y="154" width="88" height="96" rx="10" fill="url(#metal)" stroke="#9fa9b3"/><rect x="726" y="570" width="88" height="96" rx="10" fill="url(#metal)" stroke="#9fa9b3"/><circle cx="708" cy="192" r="22" fill="none" stroke="#9fa9b3" stroke-width="7"/><circle cx="832" cy="192" r="22" fill="none" stroke="#9fa9b3" stroke-width="7"/><circle cx="708" cy="628" r="22" fill="none" stroke="#9fa9b3" stroke-width="7"/><circle cx="832" cy="628" r="22" fill="none" stroke="#9fa9b3" stroke-width="7"/><circle cx="770" cy="200" r="11" fill="#c8d0d8" stroke="#9fa9b3" stroke-width="2"/><line x1="763.95" y1="200" x2="776.05" y2="200" stroke="#fff" stroke-width="2.5" stroke-linecap="round" opacity="0.85"/><line x1="770" y1="193.95" x2="770" y2="206.05" stroke="#fff" stroke-width="2.5" stroke-linecap="round" opacity="0.85"/><circle cx="770" cy="620" r="11" fill="#c8d0d8" stroke="#9fa9b3" stroke-width="2"/><line x1="763.95" y1="620" x2="776.05" y2="620" stroke="#fff" stroke-width="2.5" stroke-linecap="round" opacity="0.85"/><line x1="770" y1="613.95" x2="770" y2="626.05" stroke="#fff" stroke-width="2.5" stroke-linecap="round" opacity="0.85"/><rect x="685" y="230" width="170" height="360" rx="24" fill="url(#deviceFace)" stroke="#d7dde4" stroke-width="3"/><rect x="702" y="254" width="136" height="138" rx="28" fill="#fff" stroke="#e3e6ea"/><rect x="735" y="268" width="14" height="52" rx="4" fill="#111"/><rect x="791" y="268" width="14" height="52" rx="4" fill="#111"/><path d="M 744 352 Q 770 329 796 352 L 792 374 L 748 374 Z" fill="#111"/><circle cx="770" cy="410" r="10" fill="#111"/><rect x="702" y="428" width="136" height="138" rx="28" fill="#fff" stroke="#e3e6ea"/><rect x="735" y="442" width="14" height="52" rx="4" fill="#111"/><rect x="791" y="442" width="14" height="52" rx="4" fill="#111"/><path d="M 744 526 Q 770 503 796 526 L 792 548 L 748 548 Z" fill="#111"/><circle cx="663" cy="318" r="13" fill="#c8d0d8" stroke="#3e4650" stroke-width="2"/><line x1="655.85" y1="318" x2="670.15" y2="318" stroke="#fff" stroke-width="2.5" stroke-linecap="round" opacity="0.85"/><line x1="663" y1="310.85" x2="663" y2="325.15" stroke="#fff" stroke-width="2.5" stroke-linecap="round" opacity="0.85"/><circle cx="663" cy="490" r="13" fill="#c8d0d8" stroke="#3e4650" stroke-width="2"/><line x1="655.85" y1="490" x2="670.15" y2="490" stroke="#fff" stroke-width="2.5" stroke-linecap="round" opacity="0.85"/><line x1="663" y1="482.85" x2="663" y2="497.15" stroke="#fff" stroke-width="2.5" stroke-linecap="round" opacity="0.85"/><circle cx="877" cy="318" r="13" fill="#c58a21" stroke="#3e4650" stroke-width="2"/><line x1="869.85" y1="318" x2="884.15" y2="318" stroke="#fff" stroke-width="2.5" stroke-linecap="round" opacity="0.85"/><line x1="877" y1="310.85" x2="877" y2="325.15" stroke="#fff" stroke-width="2.5" stroke-linecap="round" opacity="0.85"/><circle cx="877" cy="490" r="13" fill="#c58a21" stroke="#3e4650" stroke-width="2"/><line x1="869.85" y1="490" x2="884.15" y2="490" stroke="#fff" stroke-width="2.5" stroke-linecap="round" opacity="0.85"/><line x1="877" y1="482.85" x2="877" y2="497.15" stroke="#fff" stroke-width="2.5" stroke-linecap="round" opacity="0.85"/><circle cx="663" cy="562" r="13" fill="#1f9a5b" stroke="#3e4650" stroke-width="2"/><line x1="655.85" y1="562" x2="670.15" y2="562" stroke="#fff" stroke-width="2.5" stroke-linecap="round" opacity="0.85"/><line x1="663" y1="554.85" x2="663" y2="569.15" stroke="#fff" stroke-width="2.5" stroke-linecap="round" opacity="0.85"/><rect x="677" y="335" width="7" height="135" rx="3" fill="#cfd6dc"/><rect x="857" y="340" width="7" height="42" rx="3" fill="#c58a21"/><rect x="857" y="435" width="7" height="42" rx="3" fill="#c58a21"/><line x1="856" y1="398" x2="866" y2="422" stroke="#d73535" stroke-width="4" stroke-linecap="round"/><text x="637" y="285" text-anchor="middle" font-family="Inter, Arial, Helvetica, sans-serif" font-size="13" font-weight="700" fill="#5d6875">silver</text><text x="907" y="285" text-anchor="middle" font-family="Inter, Arial, Helvetica, sans-serif" font-size="13" font-weight="700" fill="#5d6875">brass</text></g><g filter="url(#shadow)"><rect x="1176" y="169" width="88" height="96" rx="10" fill="url(#metal)" stroke="#9fa9b3"/><rect x="1176" y="555" width="88" height="96" rx="10" fill="url(#metal)" stroke="#9fa9b3"/><circle cx="1158" cy="207" r="22" fill="none" stroke="#9fa9b3" stroke-width="7"/><circle cx="1282" cy="207" r="22" fill="none" stroke="#9fa9b3" stroke-width="7"/><circle cx="1158" cy="613" r="22" fill="none" stroke="#9fa9b3" stroke-width="7"/><circle cx="1282" cy="613" r="22" fill="none" stroke="#9fa9b3" stroke-width="7"/><circle cx="1220" cy="215" r="11" fill="#c8d0d8" stroke="#9fa9b3" stroke-width="2"/><line x1="1213.95" y1="215" x2="1226.05" y2="215" stroke="#fff" stroke-width="2.5" stroke-linecap="round" opacity="0.85"/><line x1="1220" y1="208.95" x2="1220" y2="221.05" stroke="#fff" stroke-width="2.5" stroke-linecap="round" opacity="0.85"/><circle cx="1220" cy="605" r="11" fill="#c8d0d8" stroke="#9fa9b3" stroke-width="2"/><line x1="1213.95" y1="605" x2="1226.05" y2="605" stroke="#fff" stroke-width="2.5" stroke-linecap="round" opacity="0.85"/><line x1="1220" y1="598.95" x2="1220" y2="611.05" stroke="#fff" stroke-width="2.5" stroke-linecap="round" opacity="0.85"/><rect x="1135" y="245" width="170" height="330" rx="24" fill="url(#deviceFace)" stroke="#d7dde4" stroke-width="3"/><rect x="1185" y="281" width="14" height="52" rx="4" fill="#111"/><rect x="1241" y="281" width="14" height="52" rx="4" fill="#111"/><path d="M 1194 365 Q 1220 342 1246 365 L 1242 387 L 1198 387 Z" fill="#111"/><rect x="1170" y="387" width="100" height="38" rx="7" fill="#f9fafb" stroke="#959da7" stroke-width="2"/><text x="1220" y="412" text-anchor="middle" font-family="Inter, Arial, Helvetica, sans-serif" font-size="16" font-weight="800" fill="#17202a">TEST</text><rect x="1170" y="439" width="100" height="38" rx="7" fill="#f9fafb" stroke="#959da7" stroke-width="2"/><text x="1220" y="464" text-anchor="middle" font-family="Inter, Arial, Helvetica, sans-serif" font-size="16" font-weight="800" fill="#17202a">RESET</text><rect x="1185" y="497" width="14" height="52" rx="4" fill="#111"/><rect x="1241" y="497" width="14" height="52" rx="4" fill="#111"/><path d="M 1194 581 Q 1220 558 1246 581 L 1242 603 L 1198 603 Z" fill="#111"/><circle cx="1113" cy="333" r="13" fill="#c8d0d8" stroke="#3e4650" stroke-width="2"/><line x1="1105.85" y1="333" x2="1120.15" y2="333" stroke="#fff" stroke-width="2.5" stroke-linecap="round" opacity="0.85"/><line x1="1113" y1="325.85" x2="1113" y2="340.15" stroke="#fff" stroke-width="2.5" stroke-linecap="round" opacity="0.85"/><circle cx="1113" cy="455" r="13" fill="#c8d0d8" stroke="#3e4650" stroke-width="2"/><line x1="1105.85" y1="455" x2="1120.15" y2="455" stroke="#fff" stroke-width="2.5" stroke-linecap="round" opacity="0.85"/><line x1="1113" y1="447.85" x2="1113" y2="462.15" stroke="#fff" stroke-width="2.5" stroke-linecap="round" opacity="0.85"/><circle cx="1327" cy="333" r="13" fill="#c58a21" stroke="#3e4650" stroke-width="2"/><line x1="1319.85" y1="333" x2="1334.15" y2="333" stroke="#fff" stroke-width="2.5" stroke-linecap="round" opacity="0.85"/><line x1="1327" y1="325.85" x2="1327" y2="340.15" stroke="#fff" stroke-width="2.5" stroke-linecap="round" opacity="0.85"/><circle cx="1327" cy="455" r="13" fill="#c58a21" stroke="#3e4650" stroke-width="2"/><line x1="1319.85" y1="455" x2="1334.15" y2="455" stroke="#fff" stroke-width="2.5" stroke-linecap="round" opacity="0.85"/><line x1="1327" y1="447.85" x2="1327" y2="462.15" stroke="#fff" stroke-width="2.5" stroke-linecap="round" opacity="0.85"/><circle cx="1113" cy="547" r="13" fill="#1f9a5b" stroke="#3e4650" stroke-width="2"/><line x1="1105.85" y1="547" x2="1120.15" y2="547" stroke="#fff" stroke-width="2.5" stroke-linecap="round" opacity="0.85"/><line x1="1113" y1="539.85" x2="1113" y2="554.15" stroke="#fff" stroke-width="2.5" stroke-linecap="round" opacity="0.85"/><rect x="1127" y="350" width="7" height="86" rx="3" fill="#cfd6dc"/><rect x="1307" y="350" width="7" height="86" rx="3" fill="#c58a21"/><text x="1087" y="300" text-anchor="middle" font-family="Inter, Arial, Helvetica, sans-serif" font-size="13" font-weight="700" fill="#5d6875">silver</text><text x="1357" y="300" text-anchor="middle" font-family="Inter, Arial, Helvetica, sans-serif" font-size="13" font-weight="700" fill="#5d6875">brass</text></g><g filter="url(#shadow)"><rect x="1471" y="169" width="88" height="96" rx="10" fill="url(#metal)" stroke="#9fa9b3"/><rect x="1471" y="555" width="88" height="96" rx="10" fill="url(#metal)" stroke="#9fa9b3"/><circle cx="1453" cy="207" r="22" fill="none" stroke="#9fa9b3" stroke-width="7"/><circle cx="1577" cy="207" r="22" fill="none" stroke="#9fa9b3" stroke-width="7"/><circle cx="1453" cy="613" r="22" fill="none" stroke="#9fa9b3" stroke-width="7"/><circle cx="1577" cy="613" r="22" fill="none" stroke="#9fa9b3" stroke-width="7"/><circle cx="1515" cy="215" r="11" fill="#c8d0d8" stroke="#9fa9b3" stroke-width="2"/><line x1="1508.95" y1="215" x2="1521.05" y2="215" stroke="#fff" stroke-width="2.5" stroke-linecap="round" opacity="0.85"/><line x1="1515" y1="208.95" x2="1515" y2="221.05" stroke="#fff" stroke-width="2.5" stroke-linecap="round" opacity="0.85"/><circle cx="1515" cy="605" r="11" fill="#c8d0d8" stroke="#9fa9b3" stroke-width="2"/><line x1="1508.95" y1="605" x2="1521.05" y2="605" stroke="#fff" stroke-width="2.5" stroke-linecap="round" opacity="0.85"/><line x1="1515" y1="598.95" x2="1515" y2="611.05" stroke="#fff" stroke-width="2.5" stroke-linecap="round" opacity="0.85"/><rect x="1420" y="245" width="190" height="330" rx="18" fill="#f8fafc" stroke="#aeb8c2" stroke-width="3"/><rect x="1438" y="279" width="154" height="112" rx="12" fill="#eef2f5" stroke="#c0c8d0" stroke-width="2"/><rect x="1438" y="429" width="154" height="112" rx="12" fill="#eef2f5" stroke="#c0c8d0" stroke-width="2"/><text x="1515" y="315" text-anchor="middle" font-family="Inter, Arial, Helvetica, sans-serif" font-size="18" font-weight="850" fill="#17202a">LINE / IN</text><text x="1515" y="465" text-anchor="middle" font-family="Inter, Arial, Helvetica, sans-serif" font-size="18" font-weight="850" fill="#17202a">LOAD / OUT</text><text x="1470" y="341" text-anchor="middle" font-family="Inter, Arial, Helvetica, sans-serif" font-size="13" font-weight="700" fill="#5d6875">neutral</text><text x="1560" y="341" text-anchor="middle" font-family="Inter, Arial, Helvetica, sans-serif" font-size="13" font-weight="700" fill="#5d6875">hot</text><text x="1470" y="491" text-anchor="middle" font-family="Inter, Arial, Helvetica, sans-serif" font-size="13" font-weight="700" fill="#5d6875">neutral</text><text x="1560" y="491" text-anchor="middle" font-family="Inter, Arial, Helvetica, sans-serif" font-size="13" font-weight="700" fill="#5d6875">hot</text><circle cx="1468" cy="371" r="13" fill="#c8d0d8" stroke="#3e4650" stroke-width="2"/><line x1="1460.85" y1="371" x2="1475.15" y2="371" stroke="#fff" stroke-width="2.5" stroke-linecap="round" opacity="0.85"/><line x1="1468" y1="363.85" x2="1468" y2="378.15" stroke="#fff" stroke-width="2.5" stroke-linecap="round" opacity="0.85"/><circle cx="1562" cy="371" r="13" fill="#c58a21" stroke="#3e4650" stroke-width="2"/><line x1="1554.85" y1="371" x2="1569.15" y2="371" stroke="#fff" stroke-width="2.5" stroke-linecap="round" opacity="0.85"/><line x1="1562" y1="363.85" x2="1562" y2="378.15" stroke="#fff" stroke-width="2.5" stroke-linecap="round" opacity="0.85"/><circle cx="1468" cy="521" r="13" fill="#c8d0d8" stroke="#3e4650" stroke-width="2"/><line x1="1460.85" y1="521" x2="1475.15" y2="521" stroke="#fff" stroke-width="2.5" stroke-linecap="round" opacity="0.85"/><line x1="1468" y1="513.85" x2="1468" y2="528.15" stroke="#fff" stroke-width="2.5" stroke-linecap="round" opacity="0.85"/><circle cx="1562" cy="521" r="13" fill="#c58a21" stroke="#3e4650" stroke-width="2"/><line x1="1554.85" y1="521" x2="1569.15" y2="521" stroke="#fff" stroke-width="2.5" stroke-linecap="round" opacity="0.85"/><line x1="1562" y1="513.85" x2="1562" y2="528.15" stroke="#fff" stroke-width="2.5" stroke-linecap="round" opacity="0.85"/><circle cx="1396" cy="545" r="13" fill="#1f9a5b" stroke="#3e4650" stroke-width="2"/><line x1="1388.85" y1="545" x2="1403.15" y2="545" stroke="#fff" stroke-width="2.5" stroke-linecap="round" opacity="0.85"/><line x1="1396" y1="537.85" x2="1396" y2="552.15" stroke="#fff" stroke-width="2.5" stroke-linecap="round" opacity="0.85"/><line x1="1468" y1="371" x2="1374" y2="355" stroke="#74808c" stroke-width="2" stroke-linecap="round"/><circle cx="1468" cy="371" r="4" fill="#74808c"/><text x="1374" y="349" text-anchor="middle" font-family="Inter, Arial, Helvetica, sans-serif" font-size="15" font-weight="800" fill="#17202a">silver</text><line x1="1562" y1="371" x2="1664" y2="355" stroke="#74808c" stroke-width="2" stroke-linecap="round"/><circle cx="1562" cy="371" r="4" fill="#74808c"/><text x="1664" y="349" text-anchor="middle" font-family="Inter, Arial, Helvetica, sans-serif" font-size="15" font-weight="800" fill="#17202a">brass</text><line x1="1468" y1="521" x2="1374" y2="537" stroke="#74808c" stroke-width="2" stroke-linecap="round"/><circle cx="1468" cy="521" r="4" fill="#74808c"/><text x="1374" y="531" text-anchor="middle" font-family="Inter, Arial, Helvetica, sans-serif" font-size="15" font-weight="800" fill="#17202a">silver</text><line x1="1562" y1="521" x2="1664" y2="537" stroke="#74808c" stroke-width="2" stroke-linecap="round"/><circle cx="1562" cy="521" r="4" fill="#74808c"/><text x="1664" y="531" text-anchor="middle" font-family="Inter, Arial, Helvetica, sans-serif" font-size="15" font-weight="800" fill="#17202a">brass</text></g><rect x="65" y="800" width="440" height="86" rx="16" fill="#fff" stroke="#d7dde3"/><text x="285" y="836" text-anchor="middle" font-family="Inter, Arial, Helvetica, sans-serif" font-size="24" font-weight="800" fill="#17202a">Standard Outlet</text><text x="285" y="864" text-anchor="middle" font-family="Inter, Arial, Helvetica, sans-serif" font-size="16" font-weight="650" fill="#5d6875">2 brass + 2 silver + green; both tabs intact</text><rect x="550" y="800" width="440" height="86" rx="16" fill="#fff" stroke="#d7dde3"/><text x="770" y="836" text-anchor="middle" font-family="Inter, Arial, Helvetica, sans-serif" font-size="24" font-weight="800" fill="#17202a">Half-Hot Outlet</text><text x="770" y="864" text-anchor="middle" font-family="Inter, Arial, Helvetica, sans-serif" font-size="16" font-weight="650" fill="#5d6875">2 brass + 2 silver + green; hot tab removed</text><rect x="1150" y="800" width="440" height="86" rx="16" fill="#fff" stroke="#d7dde3"/><text x="1370" y="836" text-anchor="middle" font-family="Inter, Arial, Helvetica, sans-serif" font-size="24" font-weight="800" fill="#17202a">GFCI Outlet</text><text x="1370" y="864" text-anchor="middle" font-family="Inter, Arial, Helvetica, sans-serif" font-size="16" font-weight="650" fill="#5d6875">front TEST/RESET; rear LINE/IN + LOAD/OUT</text>
</svg>