<?xml version="1.0" encoding="UTF-8"?>
<svg xmlns="http://www.w3.org/2000/svg" width="1600" height="980" viewBox="0 0 1600 980" role="img" aria-label="Accuracy-Locked Switch Assets">
  <defs>
    <filter id="shadow" x="-20%" y="-20%" width="140%" height="150%">
      <feDropShadow dx="0" dy="16" stdDeviation="16" flood-color="#26313d" flood-opacity="0.18"/>
    </filter>
    <linearGradient id="deviceFace" x1="0" x2="0" y1="0" y2="1">
      <stop offset="0%" stop-color="#ffffff"/>
      <stop offset="100%" stop-color="#f2f4f6"/>
    </linearGradient>
    <linearGradient id="metal" x1="0" x2="1" y1="0" y2="1">
      <stop offset="0%" stop-color="#f5f7f8"/>
      <stop offset="45%" stop-color="#cfd6dc"/>
      <stop offset="100%" stop-color="#9fa9b3"/>
    </linearGradient>
    <linearGradient id="boxMetal" x1="0" x2="1" y1="0" y2="1">
      <stop offset="0%" stop-color="#f2f6f8"/>
      <stop offset="50%" stop-color="#b7c0c7"/>
      <stop offset="100%" stop-color="#7f8b95"/>
    </linearGradient>
  </defs>
  <rect width="100%" height="100%" fill="#f4f6f8"/>
  <text x="800" y="58" text-anchor="middle" font-family="Inter, Arial, Helvetica, sans-serif" font-size="34" font-weight="800" fill="#17202a">Accuracy-Locked Switch Assets</text>
  <text x="800" y="92" text-anchor="middle" font-family="Inter, Arial, Helvetica, sans-serif" font-size="18" font-weight="650" fill="#5d6875">Terminal placement follows the user-provided 3-way and 4-way reference photos.</text>
  <g filter="url(#shadow)"><rect x="256" y="149" width="88" height="96" rx="10" fill="url(#metal)" stroke="#9fa9b3"/><rect x="256" y="535" width="88" height="96" rx="10" fill="url(#metal)" stroke="#9fa9b3"/><circle cx="238" cy="187" r="22" fill="none" stroke="#9fa9b3" stroke-width="7"/><circle cx="362" cy="187" r="22" fill="none" stroke="#9fa9b3" stroke-width="7"/><circle cx="238" cy="593" r="22" fill="none" stroke="#9fa9b3" stroke-width="7"/><circle cx="362" cy="593" r="22" fill="none" stroke="#9fa9b3" stroke-width="7"/><circle cx="300" cy="195" r="11" fill="#c8d0d8" stroke="#9fa9b3" stroke-width="2"/><line x1="293.95" y1="195" x2="306.05" y2="195" stroke="#fff" stroke-width="2.5" stroke-linecap="round" opacity="0.85"/><line x1="300" y1="188.95" x2="300" y2="201.05" stroke="#fff" stroke-width="2.5" stroke-linecap="round" opacity="0.85"/><circle cx="300" cy="585" r="11" fill="#c8d0d8" stroke="#9fa9b3" stroke-width="2"/><line x1="293.95" y1="585" x2="306.05" y2="585" stroke="#fff" stroke-width="2.5" stroke-linecap="round" opacity="0.85"/><line x1="300" y1="578.95" x2="300" y2="591.05" stroke="#fff" stroke-width="2.5" stroke-linecap="round" opacity="0.85"/><rect x="225" y="225" width="150" height="330" rx="20" fill="url(#deviceFace)" stroke="#d7dde4" stroke-width="3"/><rect x="258" y="320" width="84" height="140" rx="8" fill="#edf0f3" stroke="#888f98" stroke-width="3"/><path d="M 272 335 L 330 329 L 322 447 L 275 453 Z" fill="#fff" stroke="#c8ced6" stroke-width="2"/><circle cx="397" cy="335" r="13" fill="#c58a21" stroke="#3e4650" stroke-width="2"/><line x1="389.85" y1="335" x2="404.15" y2="335" stroke="#fff" stroke-width="2.5" stroke-linecap="round" opacity="0.85"/><line x1="397" y1="327.85" x2="397" y2="342.15" stroke="#fff" stroke-width="2.5" stroke-linecap="round" opacity="0.85"/><circle cx="397" cy="445" r="13" fill="#c58a21" stroke="#3e4650" stroke-width="2"/><line x1="389.85" y1="445" x2="404.15" y2="445" stroke="#fff" stroke-width="2.5" stroke-linecap="round" opacity="0.85"/><line x1="397" y1="437.85" x2="397" y2="452.15" stroke="#fff" stroke-width="2.5" stroke-linecap="round" opacity="0.85"/><circle cx="203" cy="510" r="13" fill="#1f9a5b" stroke="#3e4650" stroke-width="2"/><line x1="195.85" y1="510" x2="210.15" y2="510" stroke="#fff" stroke-width="2.5" stroke-linecap="round" opacity="0.85"/><line x1="203" y1="502.85" x2="203" y2="517.15" stroke="#fff" stroke-width="2.5" stroke-linecap="round" opacity="0.85"/><text x="300" y="663" text-anchor="middle" font-family="Inter, Arial, Helvetica, sans-serif" font-size="17" font-weight="650" fill="#5d6875">2 brass terminals</text><text x="300" y="686" text-anchor="middle" font-family="Inter, Arial, Helvetica, sans-serif" font-size="17" font-weight="650" fill="#5d6875">1 green ground</text></g><g filter="url(#shadow)"><rect x="756" y="149" width="88" height="96" rx="10" fill="url(#metal)" stroke="#9fa9b3"/><rect x="756" y="535" width="88" height="96" rx="10" fill="url(#metal)" stroke="#9fa9b3"/><circle cx="738" cy="187" r="22" fill="none" stroke="#9fa9b3" stroke-width="7"/><circle cx="862" cy="187" r="22" fill="none" stroke="#9fa9b3" stroke-width="7"/><circle cx="738" cy="593" r="22" fill="none" stroke="#9fa9b3" stroke-width="7"/><circle cx="862" cy="593" r="22" fill="none" stroke="#9fa9b3" stroke-width="7"/><circle cx="800" cy="195" r="11" fill="#c8d0d8" stroke="#9fa9b3" stroke-width="2"/><line x1="793.95" y1="195" x2="806.05" y2="195" stroke="#fff" stroke-width="2.5" stroke-linecap="round" opacity="0.85"/><line x1="800" y1="188.95" x2="800" y2="201.05" stroke="#fff" stroke-width="2.5" stroke-linecap="round" opacity="0.85"/><circle cx="800" cy="585" r="11" fill="#c8d0d8" stroke="#9fa9b3" stroke-width="2"/><line x1="793.95" y1="585" x2="806.05" y2="585" stroke="#fff" stroke-width="2.5" stroke-linecap="round" opacity="0.85"/><line x1="800" y1="578.95" x2="800" y2="591.05" stroke="#fff" stroke-width="2.5" stroke-linecap="round" opacity="0.85"/><rect x="725" y="225" width="150" height="330" rx="20" fill="url(#deviceFace)" stroke="#d7dde4" stroke-width="3"/><path d="M 738 260 L 862 260 L 866 463 Q 848 483 858 527 L 742 527 Q 752 483 734 463 Z" fill="url(#metal)" stroke="#9fa9b3" stroke-width="2" opacity="0.92"/><rect x="758" y="320" width="84" height="140" rx="8" fill="#edf0f3" stroke="#888f98" stroke-width="3"/><path d="M 772 335 L 830 329 L 822 447 L 775 453 Z" fill="#fff" stroke="#c8ced6" stroke-width="2"/><circle cx="703" cy="337" r="13" fill="#c58a21" stroke="#3e4650" stroke-width="2"/><line x1="695.85" y1="337" x2="710.15" y2="337" stroke="#fff" stroke-width="2.5" stroke-linecap="round" opacity="0.85"/><line x1="703" y1="329.85" x2="703" y2="344.15" stroke="#fff" stroke-width="2.5" stroke-linecap="round" opacity="0.85"/><circle cx="897" cy="337" r="13" fill="#c58a21" stroke="#3e4650" stroke-width="2"/><line x1="889.85" y1="337" x2="904.15" y2="337" stroke="#fff" stroke-width="2.5" stroke-linecap="round" opacity="0.85"/><line x1="897" y1="329.85" x2="897" y2="344.15" stroke="#fff" stroke-width="2.5" stroke-linecap="round" opacity="0.85"/><circle cx="897" cy="473" r="13" fill="#1c1d20" stroke="#3e4650" stroke-width="2"/><line x1="889.85" y1="473" x2="904.15" y2="473" stroke="#fff" stroke-width="2.5" stroke-linecap="round" opacity="0.85"/><line x1="897" y1="465.85" x2="897" y2="480.15" stroke="#fff" stroke-width="2.5" stroke-linecap="round" opacity="0.85"/><circle cx="703" cy="263" r="13" fill="#1f9a5b" stroke="#3e4650" stroke-width="2"/><line x1="695.85" y1="263" x2="710.15" y2="263" stroke="#fff" stroke-width="2.5" stroke-linecap="round" opacity="0.85"/><line x1="703" y1="255.85" x2="703" y2="270.15" stroke="#fff" stroke-width="2.5" stroke-linecap="round" opacity="0.85"/><line x1="703" y1="337" x2="627" y2="317" stroke="#74808c" stroke-width="2" stroke-linecap="round"/><circle cx="703" cy="337" r="4" fill="#74808c"/><text x="627" y="311" text-anchor="middle" font-family="Inter, Arial, Helvetica, sans-serif" font-size="15" font-weight="800" fill="#17202a">traveler</text><line x1="897" y1="337" x2="973" y2="317" stroke="#74808c" stroke-width="2" stroke-linecap="round"/><circle cx="897" cy="337" r="4" fill="#74808c"/><text x="973" y="311" text-anchor="middle" font-family="Inter, Arial, Helvetica, sans-serif" font-size="15" font-weight="800" fill="#17202a">traveler</text><line x1="897" y1="473" x2="979" y2="491" stroke="#74808c" stroke-width="2" stroke-linecap="round"/><circle cx="897" cy="473" r="4" fill="#74808c"/><text x="979" y="485" text-anchor="middle" font-family="Inter, Arial, Helvetica, sans-serif" font-size="15" font-weight="800" fill="#17202a">common</text><text x="800" y="663" text-anchor="middle" font-family="Inter, Arial, Helvetica, sans-serif" font-size="17" font-weight="650" fill="#5d6875">User ref: brass travelers upper L/R</text><text x="800" y="686" text-anchor="middle" font-family="Inter, Arial, Helvetica, sans-serif" font-size="17" font-weight="650" fill="#5d6875">black common lower right; ground high left</text></g><g filter="url(#shadow)"><rect x="1256" y="149" width="88" height="96" rx="10" fill="url(#metal)" stroke="#9fa9b3"/><rect x="1256" y="535" width="88" height="96" rx="10" fill="url(#metal)" stroke="#9fa9b3"/><circle cx="1238" cy="187" r="22" fill="none" stroke="#9fa9b3" stroke-width="7"/><circle cx="1362" cy="187" r="22" fill="none" stroke="#9fa9b3" stroke-width="7"/><circle cx="1238" cy="593" r="22" fill="none" stroke="#9fa9b3" stroke-width="7"/><circle cx="1362" cy="593" r="22" fill="none" stroke="#9fa9b3" stroke-width="7"/><circle cx="1300" cy="195" r="11" fill="#c8d0d8" stroke="#9fa9b3" stroke-width="2"/><line x1="1293.95" y1="195" x2="1306.05" y2="195" stroke="#fff" stroke-width="2.5" stroke-linecap="round" opacity="0.85"/><line x1="1300" y1="188.95" x2="1300" y2="201.05" stroke="#fff" stroke-width="2.5" stroke-linecap="round" opacity="0.85"/><circle cx="1300" cy="585" r="11" fill="#c8d0d8" stroke="#9fa9b3" stroke-width="2"/><line x1="1293.95" y1="585" x2="1306.05" y2="585" stroke="#fff" stroke-width="2.5" stroke-linecap="round" opacity="0.85"/><line x1="1300" y1="578.95" x2="1300" y2="591.05" stroke="#fff" stroke-width="2.5" stroke-linecap="round" opacity="0.85"/><rect x="1225" y="225" width="150" height="330" rx="20" fill="url(#deviceFace)" stroke="#d7dde4" stroke-width="3"/><path d="M 1238 260 L 1362 260 L 1366 463 Q 1348 483 1358 527 L 1242 527 Q 1252 483 1234 463 Z" fill="url(#metal)" stroke="#9fa9b3" stroke-width="2" opacity="0.92"/><rect x="1258" y="320" width="84" height="140" rx="8" fill="#edf0f3" stroke="#888f98" stroke-width="3"/><path d="M 1272 335 L 1330 329 L 1322 447 L 1275 453 Z" fill="#fff" stroke="#c8ced6" stroke-width="2"/><circle cx="1203" cy="337" r="13" fill="#c58a21" stroke="#3e4650" stroke-width="2"/><line x1="1195.85" y1="337" x2="1210.15" y2="337" stroke="#fff" stroke-width="2.5" stroke-linecap="round" opacity="0.85"/><line x1="1203" y1="329.85" x2="1203" y2="344.15" stroke="#fff" stroke-width="2.5" stroke-linecap="round" opacity="0.85"/><circle cx="1397" cy="337" r="13" fill="#c58a21" stroke="#3e4650" stroke-width="2"/><line x1="1389.85" y1="337" x2="1404.15" y2="337" stroke="#fff" stroke-width="2.5" stroke-linecap="round" opacity="0.85"/><line x1="1397" y1="329.85" x2="1397" y2="344.15" stroke="#fff" stroke-width="2.5" stroke-linecap="round" opacity="0.85"/><circle cx="1203" cy="473" r="13" fill="#1c1d20" stroke="#3e4650" stroke-width="2"/><line x1="1195.85" y1="473" x2="1210.15" y2="473" stroke="#fff" stroke-width="2.5" stroke-linecap="round" opacity="0.85"/><line x1="1203" y1="465.85" x2="1203" y2="480.15" stroke="#fff" stroke-width="2.5" stroke-linecap="round" opacity="0.85"/><circle cx="1397" cy="473" r="13" fill="#1c1d20" stroke="#3e4650" stroke-width="2"/><line x1="1389.85" y1="473" x2="1404.15" y2="473" stroke="#fff" stroke-width="2.5" stroke-linecap="round" opacity="0.85"/><line x1="1397" y1="465.85" x2="1397" y2="480.15" stroke="#fff" stroke-width="2.5" stroke-linecap="round" opacity="0.85"/><circle cx="1203" cy="531" r="13" fill="#1f9a5b" stroke="#3e4650" stroke-width="2"/><line x1="1195.85" y1="531" x2="1210.15" y2="531" stroke="#fff" stroke-width="2.5" stroke-linecap="round" opacity="0.85"/><line x1="1203" y1="523.85" x2="1203" y2="538.15" stroke="#fff" stroke-width="2.5" stroke-linecap="round" opacity="0.85"/><line x1="1203" y1="337" x2="1127" y2="317" stroke="#74808c" stroke-width="2" stroke-linecap="round"/><circle cx="1203" cy="337" r="4" fill="#74808c"/><text x="1127" y="311" text-anchor="middle" font-family="Inter, Arial, Helvetica, sans-serif" font-size="15" font-weight="800" fill="#17202a">traveler</text><line x1="1397" y1="337" x2="1473" y2="317" stroke="#74808c" stroke-width="2" stroke-linecap="round"/><circle cx="1397" cy="337" r="4" fill="#74808c"/><text x="1473" y="311" text-anchor="middle" font-family="Inter, Arial, Helvetica, sans-serif" font-size="15" font-weight="800" fill="#17202a">traveler</text><line x1="1203" y1="473" x2="1123" y2="491" stroke="#74808c" stroke-width="2" stroke-linecap="round"/><circle cx="1203" cy="473" r="4" fill="#74808c"/><text x="1123" y="485" text-anchor="middle" font-family="Inter, Arial, Helvetica, sans-serif" font-size="15" font-weight="800" fill="#17202a">traveler</text><line x1="1397" y1="473" x2="1477" y2="491" stroke="#74808c" stroke-width="2" stroke-linecap="round"/><circle cx="1397" cy="473" r="4" fill="#74808c"/><text x="1477" y="485" text-anchor="middle" font-family="Inter, Arial, Helvetica, sans-serif" font-size="15" font-weight="800" fill="#17202a">traveler</text><text x="1300" y="663" text-anchor="middle" font-family="Inter, Arial, Helvetica, sans-serif" font-size="17" font-weight="650" fill="#5d6875">User ref: brass travelers upper L/R</text><text x="1300" y="686" text-anchor="middle" font-family="Inter, Arial, Helvetica, sans-serif" font-size="17" font-weight="650" fill="#5d6875">black travelers lower L/R; ground low left</text></g><rect x="80" y="795" width="440" height="86" rx="16" fill="#fff" stroke="#d7dde3"/><text x="300" y="831" text-anchor="middle" font-family="Inter, Arial, Helvetica, sans-serif" font-size="24" font-weight="800" fill="#17202a">Single-Pole Switch</text><text x="300" y="859" text-anchor="middle" font-family="Inter, Arial, Helvetica, sans-serif" font-size="16" font-weight="650" fill="#5d6875">2 brass terminals + 1 green ground</text><rect x="580" y="795" width="440" height="86" rx="16" fill="#fff" stroke="#d7dde3"/><text x="800" y="831" text-anchor="middle" font-family="Inter, Arial, Helvetica, sans-serif" font-size="24" font-weight="800" fill="#17202a">3-Way Switch</text><text x="800" y="859" text-anchor="middle" font-family="Inter, Arial, Helvetica, sans-serif" font-size="16" font-weight="650" fill="#5d6875">brass travelers upper L/R; black common lower R</text><rect x="1080" y="795" width="440" height="86" rx="16" fill="#fff" stroke="#d7dde3"/><text x="1300" y="831" text-anchor="middle" font-family="Inter, Arial, Helvetica, sans-serif" font-size="24" font-weight="800" fill="#17202a">4-Way Switch</text><text x="1300" y="859" text-anchor="middle" font-family="Inter, Arial, Helvetica, sans-serif" font-size="16" font-weight="650" fill="#5d6875">brass upper L/R; black lower L/R; no common</text>
</svg>