<?xml version="1.0" encoding="UTF-8"?>
<svg xmlns="http://www.w3.org/2000/svg" width="1800" height="1060" viewBox="0 0 1800 1060" role="img" aria-label="Accuracy-Locked Wire And Cable Assets">
  <defs>
    <filter id="shadow" x="-20%" y="-20%" width="140%" height="150%">
      <feDropShadow dx="0" dy="16" stdDeviation="16" flood-color="#26313d" flood-opacity="0.18"/>
    </filter>
    <linearGradient id="deviceFace" x1="0" x2="0" y1="0" y2="1">
      <stop offset="0%" stop-color="#ffffff"/>
      <stop offset="100%" stop-color="#f2f4f6"/>
    </linearGradient>
    <linearGradient id="metal" x1="0" x2="1" y1="0" y2="1">
      <stop offset="0%" stop-color="#f5f7f8"/>
      <stop offset="45%" stop-color="#cfd6dc"/>
      <stop offset="100%" stop-color="#9fa9b3"/>
    </linearGradient>
    <linearGradient id="boxMetal" x1="0" x2="1" y1="0" y2="1">
      <stop offset="0%" stop-color="#f2f6f8"/>
      <stop offset="50%" stop-color="#b7c0c7"/>
      <stop offset="100%" stop-color="#7f8b95"/>
    </linearGradient>
  </defs>
  <rect width="100%" height="100%" fill="#f4f6f8"/>
  <text x="900" y="58" text-anchor="middle" font-family="Inter, Arial, Helvetica, sans-serif" font-size="34" font-weight="800" fill="#17202a">Accuracy-Locked Wire And Cable Assets</text>
  <text x="900" y="92" text-anchor="middle" font-family="Inter, Arial, Helvetica, sans-serif" font-size="18" font-weight="650" fill="#5d6875">Fresh insulation, bright copper, clean cable jackets, every asset labeled.</text>
  <path d="M 100 230 C 175 198, 325 262, 400 230" fill="none" stroke="#1c1d20" stroke-width="32" stroke-linecap="round"/><path d="M 100 230 C 175 198, 325 262, 400 230" fill="none" stroke="#1c1d20" stroke-width="26" stroke-linecap="round"/><line x1="58" y1="230" x2="100" y2="230" stroke="#c96f2c" stroke-width="22" stroke-linecap="round"/><line x1="400" y1="230" x2="442" y2="230" stroke="#c96f2c" stroke-width="22" stroke-linecap="round"/><text x="250" y="352" text-anchor="middle" font-family="Inter, Arial, Helvetica, sans-serif" font-size="23" font-weight="800" fill="#17202a">Black Hot Wire</text><path d="M 550 230 C 625 198, 775 262, 850 230" fill="none" stroke="#d73535" stroke-width="32" stroke-linecap="round"/><path d="M 550 230 C 625 198, 775 262, 850 230" fill="none" stroke="#d73535" stroke-width="26" stroke-linecap="round"/><line x1="508" y1="230" x2="550" y2="230" stroke="#c96f2c" stroke-width="22" stroke-linecap="round"/><line x1="850" y1="230" x2="892" y2="230" stroke="#c96f2c" stroke-width="22" stroke-linecap="round"/><text x="700" y="352" text-anchor="middle" font-family="Inter, Arial, Helvetica, sans-serif" font-size="23" font-weight="800" fill="#17202a">Red Traveler/Hot Wire</text><path d="M 1000 230 C 1075 198, 1225 262, 1300 230" fill="none" stroke="#c7ced6" stroke-width="32" stroke-linecap="round"/><path d="M 1000 230 C 1075 198, 1225 262, 1300 230" fill="none" stroke="#f7f7f2" stroke-width="26" stroke-linecap="round"/><line x1="958" y1="230" x2="1000" y2="230" stroke="#c96f2c" stroke-width="22" stroke-linecap="round"/><line x1="1300" y1="230" x2="1342" y2="230" stroke="#c96f2c" stroke-width="22" stroke-linecap="round"/><text x="1150" y="352" text-anchor="middle" font-family="Inter, Arial, Helvetica, sans-serif" font-size="23" font-weight="800" fill="#17202a">White Neutral Wire</text><path d="M 1450 230 C 1525 198, 1675 262, 1750 230" fill="none" stroke="#1f9a5b" stroke-width="32" stroke-linecap="round"/><path d="M 1450 230 C 1525 198, 1675 262, 1750 230" fill="none" stroke="#1f9a5b" stroke-width="26" stroke-linecap="round"/><line x1="1408" y1="230" x2="1450" y2="230" stroke="#c96f2c" stroke-width="22" stroke-linecap="round"/><line x1="1750" y1="230" x2="1792" y2="230" stroke="#c96f2c" stroke-width="22" stroke-linecap="round"/><text x="1600" y="352" text-anchor="middle" font-family="Inter, Arial, Helvetica, sans-serif" font-size="23" font-weight="800" fill="#17202a">Green Ground Wire</text><path d="M 210 706 L 310 706 L 296 572 Q 260 538 224 572 Z" fill="#ffa51c" stroke="#c87900" stroke-width="3" filter="url(#shadow)"/><line x1="226" y1="610" x2="294" y2="602" stroke="#ffd36d" stroke-width="4" stroke-linecap="round"/><line x1="226" y1="625" x2="294" y2="617" stroke="#ffd36d" stroke-width="4" stroke-linecap="round"/><line x1="226" y1="640" x2="294" y2="632" stroke="#ffd36d" stroke-width="4" stroke-linecap="round"/><line x1="226" y1="655" x2="294" y2="647" stroke="#ffd36d" stroke-width="4" stroke-linecap="round"/><line x1="226" y1="670" x2="294" y2="662" stroke="#ffd36d" stroke-width="4" stroke-linecap="round"/><text x="260" y="772" text-anchor="middle" font-family="Inter, Arial, Helvetica, sans-serif" font-size="23" font-weight="800" fill="#17202a">Wire Nut</text><rect x="660" y="570" width="240" height="120" rx="26" fill="#e9dfc9" stroke="#d3c6a8" stroke-width="3" filter="url(#shadow)"/><line x1="880" y1="602" x2="1035" y2="589.4" stroke="#1c1d20" stroke-width="18" stroke-linecap="round"/><line x1="1030" y1="589.4" x2="1075" y2="589.4" stroke="#c96f2c" stroke-width="13" stroke-linecap="round"/><line x1="880" y1="638" x2="1035" y2="641.6" stroke="#c7ced6" stroke-width="18" stroke-linecap="round"/><line x1="1030" y1="641.6" x2="1075" y2="641.6" stroke="#c96f2c" stroke-width="13" stroke-linecap="round"/><line x1="880" y1="672" x2="1035" y2="690.9" stroke="#c96f2c" stroke-width="18" stroke-linecap="round"/><line x1="1030" y1="690.9" x2="1075" y2="690.9" stroke="#c96f2c" stroke-width="13" stroke-linecap="round"/><text x="830" y="778" text-anchor="middle" font-family="Inter, Arial, Helvetica, sans-serif" font-size="23" font-weight="800" fill="#17202a">2-Wire NM-B Cable</text><text x="830" y="806" text-anchor="middle" font-family="Inter, Arial, Helvetica, sans-serif" font-size="16" font-weight="650" fill="#5d6875">black + white + bare ground</text><rect x="1210" y="570" width="240" height="120" rx="26" fill="#e9dfc9" stroke="#d3c6a8" stroke-width="3" filter="url(#shadow)"/><line x1="1430" y1="585" x2="1585" y2="564.75" stroke="#1c1d20" stroke-width="18" stroke-linecap="round"/><line x1="1580" y1="564.75" x2="1625" y2="564.75" stroke="#c96f2c" stroke-width="13" stroke-linecap="round"/><line x1="1430" y1="615" x2="1585" y2="608.25" stroke="#d73535" stroke-width="18" stroke-linecap="round"/><line x1="1580" y1="608.25" x2="1625" y2="608.25" stroke="#c96f2c" stroke-width="13" stroke-linecap="round"/><line x1="1430" y1="645" x2="1585" y2="651.75" stroke="#c7ced6" stroke-width="18" stroke-linecap="round"/><line x1="1580" y1="651.75" x2="1625" y2="651.75" stroke="#c96f2c" stroke-width="13" stroke-linecap="round"/><line x1="1430" y1="678" x2="1585" y2="699.6" stroke="#c96f2c" stroke-width="18" stroke-linecap="round"/><line x1="1580" y1="699.6" x2="1625" y2="699.6" stroke="#c96f2c" stroke-width="13" stroke-linecap="round"/><text x="1380" y="778" text-anchor="middle" font-family="Inter, Arial, Helvetica, sans-serif" font-size="23" font-weight="800" fill="#17202a">3-Wire NM-B Cable</text><text x="1380" y="806" text-anchor="middle" font-family="Inter, Arial, Helvetica, sans-serif" font-size="16" font-weight="650" fill="#5d6875">black + red + white + bare ground</text>
</svg>